#!OML:ASF H:\ManfredETheater\Project 1\Capture day 1\Session 1\subject.ASF
:FULLY-SPECIFIED
:DEGREES
78
root -2.79489 14.1661 12.346 -20.7346 30.8852 -15.1157
lowerback 29.007 -0.714238 -4.90692
upperback 6.95737 -2.62194 -4.98489
thorax -8.18193 -1.09899 -1.85551
lowerneck -15.9577 -0.700534 -4.01348
upperneck 26.9965 -0.312392 2.1602
head 11.4371 -0.247702 1.44185
rclavicle 3.73715e-014 -6.04305e-014
rhumerus -47.4041 -29.7658 10.5643
rradius 96.0722
rwrist -16.1855
rhand -40.9002 -1.56126
rfingers 7.12502
rthumb -13.8354 -31.0811
lclavicle 3.73715e-014 -6.04305e-014
lhumerus -54.9438 28.2097 47.159
lradius 63.2637
lwrist 10.5246
lhand -30.3728 0.0618432
lfingers 7.12502
lthumb -3.6775 30.0099
rfemur -38.1478 -16.7633 16.0513
rtibia 81.8392
rfoot -18.9398 -13.1953
rtoes -27.0907
lfemur -49.2623 -12.2024 -7.75937
ltibia 76.9604
lfoot -10.1355 -8.74634
ltoes -6.11201
79
root -2.78439 14.1042 12.8132 -20.2126 30.784 -14.6333
lowerback 28.9912 -0.362925 -5.03083
upperback 7.12228 -2.192 -5.04256
thorax -7.98119 -0.894587 -1.99918
lowerneck -15.6741 -0.825045 -4.19048
upperneck 26.8992 -0.494476 2.32304
head 11.3507 -0.326168 1.50437
rclavicle 3.97569e-014 -6.36111e-015
rhumerus -45.6858 -29.4514 9.25086
rradius 95.5895
rwrist -15.7099
rhand -40.7774 -1.46172
rfingers 7.12502
rthumb -13.7171 -30.9896
lclavicle 3.97569e-014 -6.36111e-015
lhumerus -54.2756 27.9575 47.3043
lradius 62.6744
lwrist 9.65064
lhand -30.1668 0.416246
lfingers 7.12502
lthumb -3.47851 30.3676
rfemur -39.2969 -14.9429 15.0573
rtibia 77.0306
rfoot -19.3877 -12.6729
rtoes -30.5884
lfemur -49.6121 -11.3805 -7.41829
ltibia 79.7877
lfoot -11.6346 -8.95467
ltoes -8.42147
80
root -2.77795 14.0578 13.2811 -19.8732 30.7196 -14.6265
lowerback 28.9004 -0.14271 -4.79779
upperback 7.29132 -1.81487 -5.01834
thorax -7.75059 -0.720657 -2.23495
lowerneck -15.4585 -0.956232 -4.39681
upperneck 26.8457 -0.698232 2.56484
head 11.2967 -0.408058 1.59879
rclavicle 4.77083e-015 5.725e-014
rhumerus -43.9659 -29.2059 7.89989
rradius 95.0331
rwrist -15.1835
rhand -40.5459 -1.3356
rfingers 7.12502
rthumb -13.494 -30.8784
lclavicle 4.77083e-015 5.725e-014
lhumerus -53.7541 27.7808 47.2939
lradius 62.2194
lwrist 8.72526
lhand -30.0136 0.922234
lfingers 7.12502
lthumb -3.33061 30.876
rfemur -39.9052 -13.2234 14.4496
rtibia 71.6803
rfoot -19.2367 -12.0492
rtoes -34.0795
lfemur -50.1044 -10.2388 -6.70135
ltibia 82.667
lfoot -12.5706 -9.50795
ltoes -11.0155
81
root -2.77823 14.0193 13.7534 -19.8159 30.7731 -15.1269
lowerback 28.8309 -0.0595079 -4.22585
upperback 7.47615 -1.5092 -4.89391
thorax -7.51887 -0.583051 -2.52648
lowerneck -15.3118 -1.10394 -4.61805
upperneck 26.8269 -0.933588 2.8577
head 11.2724 -0.499748 1.71083
rclavicle -6.91771e-014 -2.8625e-014
rhumerus -42.2462 -28.9835 6.55966
rradius 94.3903
rwrist -14.6801
rhand -40.1875 -1.13049
rfingers 7.12502
rthumb -13.1485 -30.6959
lclavicle -6.91771e-014 -2.8625e-014
lhumerus -53.3859 27.6361 47.1596
lradius 61.9285
lwrist 7.99783
lhand -29.8453 1.49956
lfingers 7.12502
lthumb -3.16806 31.4558
rfemur -39.95 -11.6516 14.2134
rtibia 66.0725
rfoot -18.4989 -11.4963
rtoes -37.4888
lfemur -50.8355 -8.82167 -5.59238
ltibia 85.6674
lfoot -12.7408 -10.464
ltoes -13.2399
82
root -2.78776 13.9836 14.2324 -20.1024 31.0027 -16.1187
lowerback 28.8325 -0.0995646 -3.38379
upperback 7.69647 -1.27732 -4.64966
thorax -7.2832 -0.480133 -2.81372
lowerneck -15.2252 -1.27576 -4.86262
upperneck 26.8034 -1.2057 3.18862
head 11.2619 -0.605712 1.83585
rclavicle -2.70347e-014 -1.27222e-014
rhumerus -40.5151 -28.7772 5.28806
rradius 93.6272
rwrist -14.2299
rhand -39.7143 -0.810021
rfingers 7.12502
rthumb -12.6924 -30.4043
lclavicle -2.70347e-014 -1.27222e-014
lhumerus -53.151 27.5178 46.945
lradius 61.8063
lwrist 7.62708
lhand -29.6936 2.09929
lfingers 7.12502
lthumb -3.02159 32.0576
rfemur -39.4529 -10.2545 14.3158
rtibia 60.5937
rfoot -17.0414 -11.3417
rtoes -39.2497
lfemur -51.8389 -7.2155 -4.11692
ltibia 88.7726
lfoot -12.1542 -11.7817
ltoes -15.0225
83
root -2.80726 13.946 14.719 -20.7614 31.4528 -17.4956
lowerback 28.9787 -0.234644 -2.3923
upperback 7.95305 -1.11979 -4.29497
thorax -7.07501 -0.409269 -3.04042
lowerneck -15.1452 -1.47558 -5.13082
upperneck 26.7386 -1.51853 3.54554
head 11.2414 -0.729258 1.96826
rclavicle -3.97569e-014 2.54444e-014
rhumerus -38.7849 -28.5544 4.14185
rradius 92.7355
rwrist -13.8423
rhand -39.1658 -0.374138
rfingers 7.12502
rthumb -12.1635 -30.0005
lclavicle -3.97569e-014 2.54444e-014
lhumerus -53.0355 27.4177 46.6746
lradius 61.8321
lwrist 7.67321
lhand -29.5503 2.62772
lfingers 7.12502
lthumb -2.88316 32.588
rfemur -38.5317 -9.04813 14.6506
rtibia 55.6896
rfoot -14.6003 -11.5238
rtoes -40.3111
lfemur -53.0541 -5.5045 -2.42148
ltibia 91.9024
lfoot -10.9518 -13.2919
ltoes -16.3291
84
root -2.83747 13.9047 15.2107 -21.8299 32.117 -19.2062
lowerback 29.3287 -0.443557 -1.3126
upperback 8.24502 -1.02258 -3.8262
thorax -6.92201 -0.362782 -3.17355
lowerneck -15.0449 -1.71004 -5.42757
upperneck 26.6127 -1.87513 3.90856
head 11.1991 -0.874914 2.10075
rclavicle 1.39944e-013 2.22639e-014
rhumerus -37.1021 -28.2513 3.18155
rradius 91.7424
rwrist -13.5359
rhand -38.627 0.136582
rfingers 7.12502
rthumb -11.644 -29.5199
lclavicle 1.39944e-013 2.22639e-014
lhumerus -53.0296 27.3144 46.3773
lradius 61.9942
lwrist 8.08037
lhand -29.3905 2.98439
lfingers 7.12502
lthumb -2.72887 32.9467
rfemur -37.3884 -8.11737 15.2337
rtibia 51.8753
rfoot -11.6049 -11.6892
rtoes -40.637
lfemur -54.4737 -3.76361 -0.6084
ltibia 94.9348
lfoot -9.35146 -14.8873
ltoes -16.9563
85
root -2.87672 13.8568 15.7058 -23.3243 32.9643 -21.1757
lowerback 29.91 -0.702324 -0.192477
upperback 8.58001 -0.959762 -3.25869
thorax -6.82544 -0.327717 -3.21114
lowerneck -14.9078 -1.99091 -5.75687
upperneck 26.4154 -2.2896 4.27141
head 11.1295 -1.05054 2.22954
rclavicle 7.95139e-015 3.18055e-015
rhumerus -35.5011 -27.9127 2.44572
rradius 90.6554
rwrist -13.2577
rhand -38.1364 0.685103
rfingers 7.12502
rthumb -11.1709 -28.9975
lclavicle 7.95139e-015 3.18055e-015
lhumerus -53.0813 27.2331 46.0743
lradius 62.2401
lwrist 8.64878
lhand -29.2014 3.17426
lfingers 7.12502
lthumb -2.54619 33.1388
rfemur -36.2377 -7.5926 16.0817
rtibia 49.5997
rfoot -8.34395 -11.4679
rtoes -39.4733
lfemur -55.9738 -2.08898 1.18516
ltibia 97.7289
lfoot -7.77529 -16.3989
ltoes -17.1547
86
root -2.92252 13.8027 16.2003 -25.1493 33.9576 -23.2402
lowerback 30.6917 -0.982979 0.86129
upperback 8.94215 -0.920729 -2.64266
thorax -6.78443 -0.299087 -3.14914
lowerneck -14.6829 -2.30988 -6.094
upperneck 26.1413 -2.75296 4.61288
head 11.0203 -1.25302 2.344
rclavicle 2.38542e-014 -1.90833e-014
rhumerus -33.9753 -27.5602 1.90329
rradius 89.495
rwrist -12.9656
rhand -37.6832 1.2314
rfingers 7.12502
rthumb -10.7337 -28.4744
lclavicle 2.38542e-014 -1.90833e-014
lhumerus -53.1929 27.1722 45.7519
lradius 62.5371
lwrist 9.17446
lhand -29.0433 3.29681
lfingers 7.12502
lthumb -2.39357 33.2631
rfemur -35.2917 -7.68697 17.146
rtibia 49.1085
rfoot -5.30482 -10.8143
rtoes -37.0242
lfemur -57.4675 -0.571625 2.72138
ltibia 100.135
lfoot -6.59195 -17.6949
ltoes -17.1539
87
root -2.972 13.7374 16.6911 -27.1609 35.0405 -25.2553
lowerback 31.6015 -1.25481 1.77592
upperback 9.32162 -0.88617 -2.02016
thorax -6.77239 -0.268277 -2.99658
lowerneck -14.3755 -2.66013 -6.42263
upperneck 25.8016 -3.25514 4.91654
head 10.8767 -1.47866 2.4374
rclavicle -2.54444e-014 6.04305e-014
rhumerus -32.5252 -27.2447 1.51172
rradius 88.3008
rwrist -12.6156
rhand -37.3793 1.67017
rfingers 7.12502
rthumb -10.4406 -28.0506
lclavicle -2.54444e-014 6.04305e-014
lhumerus -53.3618 27.166 45.3953
lradius 62.8501
lwrist 9.50508
lhand -29.0216 3.44852
lfingers 7.12502
lthumb -2.37255 33.4151
rfemur -34.7014 -8.46745 18.3248
rtibia 50.3017
rfoot -2.88436 -9.67799
rtoes -33.5816
lfemur -58.94 0.782449 3.79041
ltibia 102.063
lfoot -5.99138 -18.6986
ltoes -16.8599
88
root -3.02205 13.6613 17.1756 -29.1825 36.2116 -26.9973
lowerback 32.9504 -1.4846 2.41386
upperback 9.29242 -0.846382 -1.5591
thorax -6.72636 -0.218982 -2.64589
lowerneck -13.9496 -3.02566 -6.72811
upperneck 25.4013 -3.78005 5.18488
head 10.6924 -1.71932 2.51143
rclavicle -3.02153e-014 -3.18055e-015
rhumerus -31.1525 -26.9884 1.21128
rradius 87.12
rwrist -12.2035
rhand -37.1433 1.98336
rfingers 7.12502
rthumb -10.2129 -27.7487
lclavicle -3.02153e-014 -3.18055e-015
lhumerus -53.604 27.1834 44.9981
lradius 63.1604
lwrist 9.56935
lhand -29.1598 3.70457
lfingers 7.12502
lthumb -2.50601 33.6696
rfemur -34.416 -9.83614 19.3682
rtibia 52.7915
rfoot -1.39557 -8.35119
rtoes -29.451
lfemur -60.3192 1.93077 4.09996
ltibia 103.437
lfoot -5.95385 -19.281
ltoes -16.1964
89
root -3.07121 13.5767 17.6542 -31.0876 37.4344 -28.4155
lowerback 34.0298 -1.62279 2.73975
upperback 9.62193 -0.788992 -1.04963
thorax -6.75617 -0.17525 -2.29658
lowerneck -13.4666 -3.40678 -7.01193
upperneck 24.9873 -4.32342 5.41075
head 10.497 -1.97374 2.56561
rclavicle -3.97569e-014 2.54444e-014
rhumerus -29.8474 -26.8354 0.945142
rradius 85.9963
rwrist -11.7325
rhand -36.9088 2.14932
rfingers 7.12502
rthumb -9.98662 -27.5938
lclavicle -3.97569e-014 2.54444e-014
lhumerus -53.9219 27.2707 44.5611
lradius 63.436
lwrist 9.35073
lhand -29.4671 4.09377
lfingers 7.12502
lthumb -2.8028 34.0551
rfemur -34.3294 -11.5448 20.1658
rtibia 56.0382
rfoot -0.932422 -7.10829
rtoes -24.9552
lfemur -61.574 2.91953 3.58827
ltibia 104.209
lfoot -6.35004 -19.4202
ltoes -15.1628
90
root -3.11751 13.4884 18.1264 -32.766 38.6877 -29.5618
lowerback 35.0218 -1.6822 2.79193
upperback 9.93015 -0.721299 -0.575686
thorax -6.76483 -0.128172 -1.84332
lowerneck -12.9727 -3.78707 -7.32862
upperneck 24.5971 -4.8605 5.6436
head 10.3136 -2.22938 2.63095
rclavicle 1.59028e-015 1.90833e-014
rhumerus -28.5489 -26.8212 0.637083
rradius 84.9477
rwrist -11.216
rhand -36.6466 2.16602
rfingers 7.12502
rthumb -9.73364 -27.5891
lclavicle 1.59028e-015 1.90833e-014
lhumerus -54.3419 27.4351 44.1042
lradius 63.6869
lwrist 8.9932
lhand -29.9525 4.662
lfingers 7.12502
lthumb -3.27154 34.6166
rfemur -34.381 -13.3576 20.7027
rtibia 59.5715
rfoot -1.47144 -6.08049
rtoes -20.5188
lfemur -62.7512 3.79777 2.30091
ltibia 104.34
lfoot -6.98724 -19.1354
ltoes -13.8461
